<svg id="Layer_1" data-name="Layer 1" xmlns="http://www.w3.org/2000/svg" viewBox="0 0 818 220.38"><defs><style>.cls-1{fill:#fff;}.cls-2{fill:#00ffc2;}</style></defs><path class="cls-1" d="M233.36,32.75a10,10,0,1,1,10,10A10.14,10.14,0,0,1,233.36,32.75Zm1.68,15h16.73v55.76H235Z"/><path class="cls-1" d="M317.56,69.22v34.24H300.83V71.67c0-6.91-4.34-10.14-9.7-10.14-6.13,0-10.37,3.56-10.37,11.48v30.45H264V47.7h16.73v5.24c3-4.13,8.59-6.8,15.95-6.8C308,46.14,317.56,54.16,317.56,69.22Z"/><path class="cls-1" d="M386.26,47.7v53c0,18.74-14.61,26.65-29.44,26.65-11.6,0-21.3-4.35-26.43-13.49l14.27-8.25c2.12,3.9,5.35,7,12.71,7,7.81,0,12.61-4,12.61-11.93V95.54c-3.68,4.57-9,7.25-16.29,7.25-15.83,0-27.43-12.94-27.43-28.33s11.6-28.32,27.43-28.32c7.25,0,12.61,2.67,16.29,7.24V47.7ZM370,74.46c0-7.69-5.58-12.93-13.5-12.93S343,66.77,343,74.46s5.57,12.94,13.49,12.94S370,82.16,370,74.46Z"/><path class="cls-1" d="M432,46.58v19c-6.92-1.12-16.73,1.67-16.73,12.71v25.21H398.52V47.7h16.73v9.92C417.48,50.15,425,46.58,432,46.58Z"/><path class="cls-1" d="M466.44,90.08a14.56,14.56,0,0,0,10.7-4.24l13.39,7.69c-5.47,7.59-13.72,11.49-24.31,11.49-19.08,0-30.9-12.83-30.9-29.44S447.37,46.14,465,46.14c16.28,0,28.33,12.6,28.33,29.44a32.85,32.85,0,0,1-.67,6.69H453.06C455.17,88.07,460.3,90.08,466.44,90.08Zm10.26-20.3c-1.79-6.47-6.8-8.81-11.82-8.81-6.36,0-10.6,3.12-12.16,8.81Z"/><path class="cls-1" d="M543.83,86.73c0,12.82-11.15,18.29-23.19,18.29-11.16,0-19.63-4.24-24-13.27l14.5-8.25c1.45,4.23,4.57,6.58,9.48,6.58,4,0,6-1.23,6-3.46,0-6.14-27.44-2.9-27.44-22.2,0-12.15,10.26-18.28,21.86-18.28,9,0,17.07,4,21.75,11.93l-14.28,7.69c-1.56-2.9-3.79-4.9-7.47-4.9-2.9,0-4.68,1.11-4.68,3.12C516.4,70.34,543.83,66.1,543.83,86.73Z"/><path class="cls-1" d="M592.68,86.73c0,12.82-11.15,18.29-23.2,18.29-11.15,0-19.63-4.24-24-13.27L560,83.5c1.45,4.23,4.57,6.58,9.48,6.58,4,0,6-1.23,6-3.46,0-6.14-27.43-2.9-27.43-22.2,0-12.15,10.26-18.28,21.86-18.28,9,0,17.06,4,21.74,11.93L577.4,65.76c-1.56-2.9-3.79-4.9-7.47-4.9-2.9,0-4.69,1.11-4.69,3.12C565.24,70.34,592.68,66.1,592.68,86.73Z"/><path class="cls-2" d="M288.57,161.87v34.24H271.84V164.32c0-6.91-4.35-10.15-9.7-10.15-6.14,0-10.37,3.57-10.37,11.49v30.45H235V118h16.73v27.55c3-4.13,8.58-6.81,15.94-6.81C279,138.78,288.57,146.81,288.57,161.87Z"/><path class="cls-2" d="M357.26,140.34v55.77H340.54v-5.25c-3.68,4.24-9.15,6.81-16.62,6.81-14.61,0-26.66-12.83-26.66-29.45s12.05-29.44,26.66-29.44c7.47,0,12.94,2.57,16.62,6.81v-5.25Zm-16.72,27.88c0-8.36-5.58-13.6-13.28-13.6S314,159.86,314,168.22s5.58,13.61,13.27,13.61S340.54,176.59,340.54,168.22Z"/><path class="cls-2" d="M366.74,168.22c0-16.61,12.6-29.44,29.55-29.44a28.74,28.74,0,0,1,25.21,14.28l-14.61,8.47c-1.9-3.9-5.91-6.24-10.82-6.24-7.25,0-12.6,5.24-12.6,12.93s5.35,12.94,12.6,12.94c4.91,0,9-2.34,10.82-6.24l14.61,8.36a28.48,28.48,0,0,1-25.21,14.39C379.34,197.67,366.74,184.84,366.74,168.22Z"/><path class="cls-2" d="M462.76,196.11l-17.84-24.65v24.65H428.19V118h16.73v46.73l16.72-24.43h19.52l-20.3,27.88,20.86,27.89Z"/><path class="cls-2" d="M541.71,140.34v55.77H525v-5.25c-3.68,4.24-9.15,6.81-16.62,6.81-14.61,0-26.65-12.83-26.65-29.45s12-29.44,26.65-29.44c7.47,0,12.94,2.57,16.62,6.81v-5.25ZM525,168.22c0-8.36-5.58-13.6-13.27-13.6s-13.28,5.24-13.28,13.6,5.58,13.61,13.28,13.61S525,176.59,525,168.22Z"/><path class="cls-2" d="M575.17,156.4v19.74c0,4.8,4.12,5.24,11.48,4.8v15.17c-21.85,2.23-28.21-4.35-28.21-20V156.4h-8.92V140.34h8.92V129.75l16.73-5v15.61H603V156.4Z"/><path class="cls-2" d="M649.66,161.87v34.24H632.93V164.32c0-6.91-4.35-10.15-9.7-10.15-6.13,0-10.37,3.57-10.37,11.49v30.45H596.13V118h16.73v27.55c3-4.13,8.59-6.81,15.95-6.81C640.07,138.78,649.66,146.81,649.66,161.87Z"/><path class="cls-2" d="M658.36,168.22a29.56,29.56,0,1,1,29.55,29.45A29.23,29.23,0,0,1,658.36,168.22Zm42.38,0c0-7.91-5.58-13.16-12.83-13.16s-12.82,5.25-12.82,13.16,5.57,13.16,12.82,13.16S700.74,176.14,700.74,168.22Z"/><path class="cls-2" d="M780.47,161.87v34.24H763.75V164.32c0-6.91-4.35-10.15-9.71-10.15-6.13,0-10.37,3.57-10.37,11.49v30.45H726.94V140.34h16.73v5.25c3-4.13,8.59-6.81,16-6.81C770.88,138.78,780.47,146.81,780.47,161.87Z"/><path class="cls-2" d="M790.84,187.07a10.6,10.6,0,1,1,10.6,10.6A10.66,10.66,0,0,1,790.84,187.07Z"/><path class="cls-2" d="M60.05,45.25l.25-.31h-.25Z"/><polygon class="cls-2" points="7.03 102.84 6.33 102.84 5.97 102.84 5.97 103.29 5.97 103.9 5.97 195.86 60.05 195.86 60.05 117.42 60.05 110.15 60.05 102.84 7.03 102.84"/><path class="cls-2" d="M93.58,77.83h0Z"/><rect class="cls-1" x="5.97" y="22.8" width="54.08" height="54.08"/><path class="cls-2" d="M111.59,22.8c-3.45,0-6.76,0-9.94,0v0H86V76.87H92.5A32.45,32.45,0,0,1,125,109.32v86.54H179v-98C179,49.22,148,22.8,111.59,22.8Z"/></svg>